<mxfile host="65bd71144e">
    <diagram id="fnE9pNxpPGlv2c-6jBnx" name="Page-1">
        <mxGraphModel dx="2224" dy="814" grid="1" gridSize="10" guides="1" tooltips="1" connect="1" arrows="1" fold="1" page="1" pageScale="1" pageWidth="850" pageHeight="1100" math="0" shadow="0">
            <root>
                <mxCell id="0"/>
                <mxCell id="1" parent="0"/>
                <mxCell id="NkMikF6e33TDDm2XQccY-5" style="edgeStyle=orthogonalEdgeStyle;rounded=0;orthogonalLoop=1;jettySize=auto;html=1;" parent="1" source="NkMikF6e33TDDm2XQccY-1" target="NkMikF6e33TDDm2XQccY-25" edge="1">
                    <mxGeometry relative="1" as="geometry">
                        <mxPoint x="180" y="360" as="targetPoint"/>
                        <Array as="points">
                            <mxPoint x="250" y="290"/>
                            <mxPoint x="180" y="290"/>
                        </Array>
                    </mxGeometry>
                </mxCell>
                <mxCell id="NkMikF6e33TDDm2XQccY-22" style="edgeStyle=orthogonalEdgeStyle;rounded=0;orthogonalLoop=1;jettySize=auto;html=1;" parent="1" source="NkMikF6e33TDDm2XQccY-1" target="NkMikF6e33TDDm2XQccY-15" edge="1">
                    <mxGeometry relative="1" as="geometry"/>
                </mxCell>
                <mxCell id="NkMikF6e33TDDm2XQccY-28" style="edgeStyle=orthogonalEdgeStyle;rounded=0;orthogonalLoop=1;jettySize=auto;html=1;entryX=0.5;entryY=0;entryDx=0;entryDy=0;" parent="1" source="NkMikF6e33TDDm2XQccY-1" target="NkMikF6e33TDDm2XQccY-26" edge="1">
                    <mxGeometry relative="1" as="geometry">
                        <Array as="points">
                            <mxPoint x="250" y="290"/>
                            <mxPoint x="340" y="290"/>
                        </Array>
                    </mxGeometry>
                </mxCell>
                <mxCell id="NkMikF6e33TDDm2XQccY-35" style="edgeStyle=orthogonalEdgeStyle;rounded=0;orthogonalLoop=1;jettySize=auto;html=1;entryX=0.5;entryY=0;entryDx=0;entryDy=0;" parent="1" source="NkMikF6e33TDDm2XQccY-1" target="NkMikF6e33TDDm2XQccY-36" edge="1">
                    <mxGeometry relative="1" as="geometry">
                        <mxPoint x="40" y="320" as="targetPoint"/>
                        <Array as="points">
                            <mxPoint x="-60" y="230"/>
                        </Array>
                    </mxGeometry>
                </mxCell>
                <mxCell id="NkMikF6e33TDDm2XQccY-1" value="Frontend" style="rounded=0;whiteSpace=wrap;html=1;" parent="1" vertex="1">
                    <mxGeometry x="190" y="200" width="120" height="60" as="geometry"/>
                </mxCell>
                <mxCell id="NkMikF6e33TDDm2XQccY-18" style="edgeStyle=orthogonalEdgeStyle;rounded=0;orthogonalLoop=1;jettySize=auto;html=1;entryX=1;entryY=0.5;entryDx=0;entryDy=0;" parent="1" source="NkMikF6e33TDDm2XQccY-2" target="NkMikF6e33TDDm2XQccY-17" edge="1">
                    <mxGeometry relative="1" as="geometry">
                        <Array as="points">
                            <mxPoint x="810" y="160"/>
                            <mxPoint x="810" y="300"/>
                        </Array>
                    </mxGeometry>
                </mxCell>
                <mxCell id="NkMikF6e33TDDm2XQccY-2" value="WalletConnect" style="rounded=0;whiteSpace=wrap;html=1;fillColor=#d5e8d4;strokeColor=#82b366;" parent="1" vertex="1">
                    <mxGeometry x="670" y="130" width="120" height="60" as="geometry"/>
                </mxCell>
                <mxCell id="NkMikF6e33TDDm2XQccY-9" style="edgeStyle=orthogonalEdgeStyle;rounded=0;orthogonalLoop=1;jettySize=auto;html=1;entryX=0.5;entryY=0;entryDx=0;entryDy=0;" parent="1" source="NkMikF6e33TDDm2XQccY-3" target="NkMikF6e33TDDm2XQccY-4" edge="1">
                    <mxGeometry relative="1" as="geometry"/>
                </mxCell>
                <mxCell id="NkMikF6e33TDDm2XQccY-30" style="edgeStyle=orthogonalEdgeStyle;rounded=0;orthogonalLoop=1;jettySize=auto;html=1;entryX=0.5;entryY=0;entryDx=0;entryDy=0;" parent="1" source="NkMikF6e33TDDm2XQccY-3" target="NkMikF6e33TDDm2XQccY-8" edge="1">
                    <mxGeometry relative="1" as="geometry">
                        <Array as="points">
                            <mxPoint x="180" y="570"/>
                            <mxPoint x="280" y="570"/>
                        </Array>
                    </mxGeometry>
                </mxCell>
                <mxCell id="NkMikF6e33TDDm2XQccY-3" value="SmartContract:&lt;br&gt;DappRegistry" style="rounded=0;whiteSpace=wrap;html=1;" parent="1" vertex="1">
                    <mxGeometry x="120" y="490" width="120" height="60" as="geometry"/>
                </mxCell>
                <mxCell id="NkMikF6e33TDDm2XQccY-4" value="SmartContract:&lt;br&gt;DSToken (ERC1155)" style="rounded=0;whiteSpace=wrap;html=1;" parent="1" vertex="1">
                    <mxGeometry x="30" y="590" width="120" height="60" as="geometry"/>
                </mxCell>
                <mxCell id="NkMikF6e33TDDm2XQccY-39" style="edgeStyle=orthogonalEdgeStyle;rounded=0;orthogonalLoop=1;jettySize=auto;html=1;" parent="1" source="NkMikF6e33TDDm2XQccY-6" target="NkMikF6e33TDDm2XQccY-23" edge="1">
                    <mxGeometry relative="1" as="geometry"/>
                </mxCell>
                <mxCell id="NkMikF6e33TDDm2XQccY-6" value="App File&lt;br&gt;(.apk, ipa)" style="rounded=0;whiteSpace=wrap;html=1;" parent="1" vertex="1">
                    <mxGeometry x="220" y="750" width="120" height="60" as="geometry"/>
                </mxCell>
                <mxCell id="NkMikF6e33TDDm2XQccY-41" style="edgeStyle=orthogonalEdgeStyle;rounded=0;orthogonalLoop=1;jettySize=auto;html=1;" parent="1" source="NkMikF6e33TDDm2XQccY-7" target="NkMikF6e33TDDm2XQccY-6" edge="1">
                    <mxGeometry relative="1" as="geometry"/>
                </mxCell>
                <mxCell id="NkMikF6e33TDDm2XQccY-7" value="IPFS" style="rounded=0;whiteSpace=wrap;html=1;fillColor=#d5e8d4;strokeColor=#82b366;" parent="1" vertex="1">
                    <mxGeometry x="220" y="670" width="120" height="60" as="geometry"/>
                </mxCell>
                <mxCell id="NkMikF6e33TDDm2XQccY-40" style="edgeStyle=orthogonalEdgeStyle;rounded=0;orthogonalLoop=1;jettySize=auto;html=1;entryX=0.5;entryY=0;entryDx=0;entryDy=0;" parent="1" source="NkMikF6e33TDDm2XQccY-8" target="NkMikF6e33TDDm2XQccY-7" edge="1">
                    <mxGeometry relative="1" as="geometry"/>
                </mxCell>
                <mxCell id="NkMikF6e33TDDm2XQccY-8" value="Ceramic" style="rounded=0;whiteSpace=wrap;html=1;fillColor=#d5e8d4;strokeColor=#82b366;" parent="1" vertex="1">
                    <mxGeometry x="220" y="590" width="120" height="60" as="geometry"/>
                </mxCell>
                <mxCell id="NkMikF6e33TDDm2XQccY-13" value="Polygon" style="text;html=1;strokeColor=#82b366;fillColor=#d5e8d4;align=center;verticalAlign=middle;whiteSpace=wrap;rounded=0;" parent="1" vertex="1">
                    <mxGeometry x="60" y="510" width="40" height="20" as="geometry"/>
                </mxCell>
                <mxCell id="NkMikF6e33TDDm2XQccY-19" style="edgeStyle=orthogonalEdgeStyle;rounded=0;orthogonalLoop=1;jettySize=auto;html=1;" parent="1" target="NkMikF6e33TDDm2XQccY-2" edge="1">
                    <mxGeometry relative="1" as="geometry">
                        <mxPoint x="540" y="230" as="sourcePoint"/>
                        <Array as="points">
                            <mxPoint x="600" y="230"/>
                            <mxPoint x="600" y="160"/>
                        </Array>
                    </mxGeometry>
                </mxCell>
                <mxCell id="NkMikF6e33TDDm2XQccY-20" style="edgeStyle=orthogonalEdgeStyle;rounded=0;orthogonalLoop=1;jettySize=auto;html=1;" parent="1" source="NkMikF6e33TDDm2XQccY-15" target="NkMikF6e33TDDm2XQccY-16" edge="1">
                    <mxGeometry relative="1" as="geometry"/>
                </mxCell>
                <mxCell id="NkMikF6e33TDDm2XQccY-21" style="edgeStyle=orthogonalEdgeStyle;rounded=0;orthogonalLoop=1;jettySize=auto;html=1;entryX=0;entryY=0.5;entryDx=0;entryDy=0;" parent="1" source="NkMikF6e33TDDm2XQccY-15" target="NkMikF6e33TDDm2XQccY-17" edge="1">
                    <mxGeometry relative="1" as="geometry">
                        <Array as="points">
                            <mxPoint x="600" y="230"/>
                            <mxPoint x="600" y="300"/>
                        </Array>
                    </mxGeometry>
                </mxCell>
                <mxCell id="NkMikF6e33TDDm2XQccY-15" value="Web3 Auth" style="rounded=0;whiteSpace=wrap;html=1;fillColor=#d5e8d4;strokeColor=#82b366;" parent="1" vertex="1">
                    <mxGeometry x="420" y="200" width="120" height="60" as="geometry"/>
                </mxCell>
                <mxCell id="NkMikF6e33TDDm2XQccY-16" value="Social Login" style="rounded=0;whiteSpace=wrap;html=1;" parent="1" vertex="1">
                    <mxGeometry x="670" y="200" width="120" height="60" as="geometry"/>
                </mxCell>
                <mxCell id="NkMikF6e33TDDm2XQccY-17" value="Other Web3 Wallets" style="rounded=0;whiteSpace=wrap;html=1;" parent="1" vertex="1">
                    <mxGeometry x="670" y="270" width="120" height="60" as="geometry"/>
                </mxCell>
                <mxCell id="NkMikF6e33TDDm2XQccY-23" value="ChainSafe, Unity, web3.unity" style="rounded=0;whiteSpace=wrap;html=1;fillColor=#dae8fc;strokeColor=#6c8ebf;" parent="1" vertex="1">
                    <mxGeometry x="365" y="750" width="120" height="60" as="geometry"/>
                </mxCell>
                <mxCell id="NkMikF6e33TDDm2XQccY-29" style="edgeStyle=orthogonalEdgeStyle;rounded=0;orthogonalLoop=1;jettySize=auto;html=1;entryX=0.5;entryY=0;entryDx=0;entryDy=0;" parent="1" source="NkMikF6e33TDDm2XQccY-25" target="NkMikF6e33TDDm2XQccY-3" edge="1">
                    <mxGeometry relative="1" as="geometry"/>
                </mxCell>
                <mxCell id="NkMikF6e33TDDm2XQccY-25" value="Upload" style="rounded=0;whiteSpace=wrap;html=1;" parent="1" vertex="1">
                    <mxGeometry x="120" y="330" width="120" height="60" as="geometry"/>
                </mxCell>
                <mxCell id="NkMikF6e33TDDm2XQccY-33" style="edgeStyle=orthogonalEdgeStyle;rounded=0;orthogonalLoop=1;jettySize=auto;html=1;entryX=0.5;entryY=0;entryDx=0;entryDy=0;" parent="1" source="NkMikF6e33TDDm2XQccY-26" target="NkMikF6e33TDDm2XQccY-32" edge="1">
                    <mxGeometry relative="1" as="geometry"/>
                </mxCell>
                <mxCell id="NkMikF6e33TDDm2XQccY-26" value="Download" style="rounded=0;whiteSpace=wrap;html=1;" parent="1" vertex="1">
                    <mxGeometry x="280" y="330" width="120" height="60" as="geometry"/>
                </mxCell>
                <mxCell id="NkMikF6e33TDDm2XQccY-34" value="download file if user holds NFT" style="edgeStyle=orthogonalEdgeStyle;rounded=0;orthogonalLoop=1;jettySize=auto;html=1;entryX=0.75;entryY=0;entryDx=0;entryDy=0;" parent="1" source="NkMikF6e33TDDm2XQccY-32" target="NkMikF6e33TDDm2XQccY-8" edge="1">
                    <mxGeometry relative="1" as="geometry"/>
                </mxCell>
                <mxCell id="NkMikF6e33TDDm2XQccY-32" value="Quicknode:&lt;br&gt;NFT Gating Check" style="rounded=0;whiteSpace=wrap;html=1;fillColor=#d5e8d4;strokeColor=#82b366;" parent="1" vertex="1">
                    <mxGeometry x="280" y="420" width="120" height="60" as="geometry"/>
                </mxCell>
                <mxCell id="NkMikF6e33TDDm2XQccY-38" value="" style="edgeStyle=orthogonalEdgeStyle;rounded=0;orthogonalLoop=1;jettySize=auto;html=1;" parent="1" source="NkMikF6e33TDDm2XQccY-36" target="NkMikF6e33TDDm2XQccY-37" edge="1">
                    <mxGeometry relative="1" as="geometry"/>
                </mxCell>
                <mxCell id="NkMikF6e33TDDm2XQccY-36" value="Social" style="rounded=0;whiteSpace=wrap;html=1;" parent="1" vertex="1">
                    <mxGeometry x="-120" y="330" width="120" height="60" as="geometry"/>
                </mxCell>
                <mxCell id="NkMikF6e33TDDm2XQccY-37" value="Lens" style="rounded=0;whiteSpace=wrap;html=1;fillColor=#d5e8d4;strokeColor=#82b366;" parent="1" vertex="1">
                    <mxGeometry x="-120" y="420" width="120" height="60" as="geometry"/>
                </mxCell>
                <mxCell id="NkMikF6e33TDDm2XQccY-42" value="" style="rounded=0;whiteSpace=wrap;html=1;fillColor=#d5e8d4;strokeColor=#82b366;" parent="1" vertex="1">
                    <mxGeometry x="470" y="400" width="20" height="20" as="geometry"/>
                </mxCell>
                <mxCell id="NkMikF6e33TDDm2XQccY-43" value="Sponsor Technology" style="text;html=1;strokeColor=none;fillColor=none;align=center;verticalAlign=middle;whiteSpace=wrap;rounded=0;" parent="1" vertex="1">
                    <mxGeometry x="510" y="400" width="40" height="20" as="geometry"/>
                </mxCell>
                <mxCell id="NkMikF6e33TDDm2XQccY-44" value="" style="rounded=0;whiteSpace=wrap;html=1;fillColor=#dae8fc;strokeColor=#6c8ebf;" parent="1" vertex="1">
                    <mxGeometry x="470" y="440" width="20" height="20" as="geometry"/>
                </mxCell>
                <mxCell id="NkMikF6e33TDDm2XQccY-45" value="Sponsor Technology but not really fulfilling their criteria" style="text;html=1;strokeColor=none;fillColor=none;align=center;verticalAlign=middle;whiteSpace=wrap;rounded=0;" parent="1" vertex="1">
                    <mxGeometry x="490" y="440" width="170" height="20" as="geometry"/>
                </mxCell>
                <mxCell id="2" value="Klaytn" style="text;html=1;strokeColor=#82b366;fillColor=#d5e8d4;align=center;verticalAlign=middle;whiteSpace=wrap;rounded=0;" vertex="1" parent="1">
                    <mxGeometry x="60" y="530" width="40" height="20" as="geometry"/>
                </mxCell>
                <mxCell id="3" value="Optimism" style="text;html=1;strokeColor=#82b366;fillColor=#d5e8d4;align=center;verticalAlign=middle;whiteSpace=wrap;rounded=0;" vertex="1" parent="1">
                    <mxGeometry x="60" y="490" width="40" height="20" as="geometry"/>
                </mxCell>
            </root>
        </mxGraphModel>
    </diagram>
</mxfile>